<svg version="1" xmlns="http://www.w3.org/2000/svg" width="1418.667" height="1418.667" viewBox="0 0 1064.000000 1064.000000"><path d="M59.5 82.8c-1 .9-1.5 1.2-1.2.6.3-.6 0-1.1-.8-1.1s-1.2.3-1 .7c.2.3-.9 1.1-2.5 1.7-2.5.9-2.8.8-2.4-.6.3-.9-.1-.6-.8.7-.7 1.5-1.8 2.2-2.9 1.9-1.1-.3-1.7 0-1.6.7.1.6-.6 1-1.5 1-1-.1-1.5.2-1.2.7.5.9-.5 1.2-3.9 1.2-1.2 0-1.4.3-.8 1.1.7.8.3 1.6-1.2 2.6-1.2.8-2.5 1.3-2.9 1.2-.5-.1-.8.7-.8 1.8s-.5 2-1.1 2c-.5 0-.7-.5-.3-1.2.5-.7.3-.8-.5-.4-.7.5-1 1-.7 1.3.9.9-1.4 4.4-2.4 3.8-.6-.4-.7.1-.3 1.1.5 1.3.3 1.5-.8.9-.8-.4-1.1-.5-.7 0 1.1 1.2-1.1 4.7-2.5 3.8-.7-.4-.7 0 .2 1 .9 1.1 1 1.7.2 1.7-.6 0-1 .3-1 .7.3 1.8-.2 3.4-.9 3-.4-.3-.8.5-.9 1.6-.5 6.2-.4 117.9.1 118.4.3.3 0 1.3-.7 2.1-.9 1.3-.9 1.4 0 .8.9-.5 1.3 0 1.3 1.8 0 1.3.4 2.6.9 2.8.5.1 1.1 1.2 1.3 2.3.1 1.1 1 2.6 1.8 3.3 1.3 1.2 1.3 1.3 0 .7-.9-.4-.7 0 .4.9 1 .8 1.5 2 1 2.7-.4.8-.3 1 .4.5.6-.4 1.9.6 2.9 2.1 2 3.1 7 8.3 8 8.3.3 0 1.7 1.2 3.1 2.7 1.3 1.6 2.1 2.2 1.8 1.6-.5-.9-.2-1.1.8-.7.9.3 1.4 1 1.1 1.4-.3.4.2 1.1 1.1 1.4.8.3 1.2.2.9-.4-.3-.5.7-.3 2.2.5 1.5.8 3.4 1.5 4.2 1.5.8 0 2.3.8 3.4 1.7 1.3 1.1 1.7 1.2 1.2.4-.6-1.1-.4-1.3 1.1-.6 1 .4 9.9.9 19.7.9 11.1.1 17.7.5 17.7 1.1 0 .6.3.6.8 0 .9-1.4 46.4-1.4 47.4 0 .5.7.8.7.8 0 0-1.4 47-1.4 47 0 0 .6.3.6.8 0 .9-1.4 46.4-1.4 47.4 0 .5.6.8.6.8-.1 0-1.4 15-1.3 15 .1 0 .6.3.6.8 0 .9-1.4 46.4-1.4 47.4 0 .5.7.8.7.8 0 0-1.4 47-1.4 47 0 0 .6.3.6.8 0 .9-1.4 46.4-1.4 47.4 0 .5.7.8.7.8 0 0-1.4 47-1.4 47 0 0 .6.3.6.8 0 1-1.4 47.2-1.4 47.2 0 0 .6.3.6.8 0 1-1.4 302.4-1.4 303.4 0 .5.7.8.7.8 0 0-1.4 46.2-1.4 47.2 0 .5.7.8.7.8 0 0-1.4 47-1.4 47 0 0 .6.3.6.8 0 .9-1.4 46.4-1.4 47.4 0 .5.7.8.7.8 0 0-1.3 45.9-1.4 47.9-.1.9.6 1.2.5.8-.1-.5-.7.8-1 3.8-.8 2.8.1 4.2-.1 3.8-.8-.4-.6 0-.8 1-.4.9.3 1.9.2 2.2-.4.4-.5 1.2-.9 1.8-.8.7.1 2.4-.3 3.9-.9 1.5-.6 3.3-1 4-.8.7.1.9.1.5-.2-.5-.2.1-1.1 1.2-1.9 1.2-.8 2.6-1.1 3.1-.8.6.4.9.1.8-.6-.2-.7.2-1.3.8-1.4.5 0 2.5-1.7 4.3-3.7 1.8-2.1 3.8-3.5 4.4-3.1.6.3.7.1.3-.5-.3-.6.1-1.5 1-2s1.7-1.3 1.7-1.8c.1-.5.6-.8 1-.6.5.1.5-.3.1-.9-.4-.7.1-1.8 1-2.5 1-.7 1.7-1.5 1.7-1.8 0-.3.5-2 1.2-3.8.6-1.8 1-3.6.9-4.1-.1-.4.2-.7.6-.7.8 0 1.2-2.2 1.5-6.8 0-1.2.4-2.2.8-2.2.9 0 1.2-6.3.6-13-.2-1.9.1-3.8.6-4.1.6-.4.6-1.3.1-2-1.2-1.9-1.1-7.2.1-8.1.6-.5.5-.8-.2-.8-.9 0-1-.7-.4-2.3.5-1.3.6-3 .1-3.7-.4-.7-.4-2.5 0-4.1.5-1.5.6-3 .3-3.3-1-1-.9-7.1 0-7.7.6-.4.6-1.3.1-2-1.2-1.9-1.1-7.2.1-8.1.6-.5.5-.8-.2-.8-.9 0-1-.7-.4-2.3.5-1.3.6-3 .1-3.7-.4-.7-.4-2.5 0-4.1.5-1.5.6-3 .3-3.3-1-1-.9-7.1 0-7.7.6-.4.6-1.3.1-2-1.2-1.9-1.1-7.2.1-8.1.6-.5.5-.8-.2-.8-.9 0-1-.7-.4-2.3.5-1.3.6-2.9.2-3.6-.5-.7-.6-2.3-.3-3.7.2-1.3 0-2.4-.5-2.4s-.9-1-.8-2.3c.1-1.2-.1-3.1-.5-4.2-.5-1.1-1.4-3.9-2.1-6.3-.7-2.3-1.7-4.2-2.3-4.2-.6 0-.4-.5.4-1 1.3-.8 1.3-1-.2-1-1.2 0-1.5-.5-1.1-1.7.4-1 .2-1.4-.5-.9-1 .6-2.9-2.9-2.4-4.6.1-.4-.6-.4-1.5-.1-1 .4-1.4.2-1-.4.4-.6 0-1.3-.8-1.7-.8-.3-1.5-1.2-1.5-2s-.5-1.8-1.2-2.2c-.7-.5-.9-.2-.4.7.4.8-.2.3-1.4-1.1-1.2-1.4-1.9-1.8-1.5-1 .4.8-.5.1-2-1.5-1.4-1.7-2.4-2.4-2-1.8.4.8.1 1.1-.9.7-.8-.3-1.7-1.2-2-2-.3-.7-1.2-1.1-2.1-.8-1 .4-1.8-.2-2.4-1.7-.5-1.3-1-1.8-1-1.2-.1 1.4-3.1 1.8-3.1.5 0-.5-.6-.9-1.2-1-.7-.1-2.4-.3-3.8-.4-1.4-.2-2.8-.8-3.2-1.3-.5-.6-.8-.5-.8.3 0 .7-.5 1-1.1.6-1.5-.9-930.9-1.1-930.9-.2 0 1.1-2.3.5-3.2-.7-.5-.6-.8-.5-.8.4 0 1-.3 1.1-1.3.3-1-.9-1.8-.7-3.2.6zM119.5 338.3c.3.7-.2 1.3-1.2 1.5-5.1.5-6.7 1-7.9 2.7-.8 1-1.4 1.5-1.4 1s-.6-.1-1.3 1c-.9 1.1-1.9 1.5-2.7 1-.9-.6-1.1-.4-.5.5.6 1 .4 1.2-.9.7-1-.4-1.5-.3-1.1.3.3.5-1.1 2.7-3.2 4.8-6.3 6.5-9.9 10.6-8.5 9.8 1.1-.7 1.1-.4 0 1.5-.7 1.3-1.9 2.9-2.7 3.5-.8.6-1.1 1.6-.7 2.2.4.7.3 1.2-.3 1.2-.5 0-.8 1.2-.5 2.6.3 1.4.1 2.3-.3 2.1-.8-.5-.8 557.8 0 563.8.2 1.6.9 4 1.5 5.1.6 1.2.8 2.4.5 2.8-.3.3-.1.6.6.6s.9.4.6 1c-.3.5-.2 1 .3 1 .6 0 1.3.7 1.6 1.6.3.8.2 1.2-.4.9-.6-.3-.7.1-.4.9.3.9 1 1.3 1.5 1 .5-.3 1 0 1 .5.1.6.2 1.5.3 2 0 .5.5 1.3 1 1.8.6.5.6.2.1-.7-.4-.8.1-.6 1.2.5 1.1 1.1 1.9 2.2 1.7 2.4-.2.2.5 1.1 1.6 1.8 1.1.8 1.8 1.9 1.4 2.4-.3.5-.2.9.3.8 2-.3 3.4.2 2.8 1.1-.4.6-.3 1 .2.9 2.2-.4 3.4.2 2.7 1.3-.4.7-.4 1 .1.6.4-.4 2.6.3 4.9 1.6 3.7 2 7 3.2 11.6 4.2 1.7.4 815.3.4 818.5 0 1.1-.1 2.6-.5 3.3-1 .6-.4 1.6-.5 2.1-.2.5.4 1.1.3 1.3-.1.3-.9 7.4-4.6 8.2-4.4 1.1.2 12.6-10.9 12.6-12.2 0-.4.5-.5 1-.2.6.4 1 .3.9-.2-.4-1.5 1.3-4.3 2.2-3.7.5.3.6-.2.3-1-.3-.9-.1-1.6.6-1.6.6 0 .9-.4.6-.8-.3-.5.1-2 .9-3.5.7-1.4 1.1-2.8.7-3.1-.3-.3 0-.6.6-.6s.9-.6.6-1.4c-.3-.8-.1-1.7.4-2 .6-.3.8-1.6.4-2.8-.3-1.2-.1-1.9.4-1.5 1.2.7 1.7-3.3 1.1-8.3-.1-1.4.2-2.8.8-3.2.6-.5.6-.8-.2-.8-.9 0-1-.7-.4-2.3.5-1.3.5-3 .1-3.7-.5-.8-.5-2.1 0-3 .5-.9.5-2.2.1-2.9-.5-.7-.6-2.7-.4-4.4.7-4.7.7-7-.2-9.1-.6-1.4-.5-1.7.4-1.1 1 .5 1.1.3.4-1.1-.5-1.1-.8-3.3-.5-4.9.2-1.7.3-4 .3-5.3-.1-2.7-.1-4.8-.1-6.5 0-.6-.1-2.8-.3-4.7-.2-1.9.1-3.8.6-4.1.6-.4.6-1.3.1-2-1.2-1.9-1.1-7.2.1-8.1.6-.5.5-.8-.2-.8-.9 0-1-.7-.4-2.3.5-1.3.5-3 .1-3.7-.5-.8-.5-2.1 0-3 .5-.9.5-2.2.1-2.9-.5-.7-.6-2.7-.4-4.4.7-4.7.7-7-.2-9.1-.6-1.4-.5-1.7.4-1.1 1 .5 1.1.3.4-1.1-.5-1.1-.8-3.3-.5-4.9.2-1.7.3-4 .3-5.3-.1-2.7-.1-4.8-.1-6.5 0-.6-.1-2.8-.3-4.7-.2-1.9.1-3.8.6-4.1.6-.4.6-1.3.1-2-1.2-1.9-1.1-7.2.1-8.1.6-.5.5-.8-.2-.8-.9 0-1-.7-.4-2.3.5-1.3.5-3 .1-3.7-.5-.8-.5-2.1 0-3 .5-.9.5-2.2.1-2.9-.5-.7-.6-2.7-.4-4.4.7-4.7.7-7-.2-9.1-.6-1.4-.5-1.7.4-1.1 1 .5 1.1.3.4-1.1-.5-1.1-.8-3.3-.5-4.9.2-1.7.3-4 .3-5.3-.1-2.7-.1-4.8-.1-6.5 0-.6-.1-2.8-.3-4.7-.2-1.9.1-3.8.6-4.1.6-.4.6-1.3.1-2-1.2-1.9-1.1-7.2.1-8.1.6-.5.5-.8-.2-.8-.9 0-1-.7-.4-2.3.5-1.3.5-3 .1-3.7-.5-.8-.5-2.1 0-3 .5-.9.5-2.2.1-2.9-.5-.7-.6-2.7-.4-4.4.7-4.7.7-7-.2-9.1-.6-1.4-.5-1.7.4-1.1 1 .5 1.1.3.4-1.1-.5-1.1-.8-3.3-.5-4.9.2-1.7.3-4 .3-5.3-.1-2.7-.1-4.8-.1-6.5 0-.6-.1-2.8-.3-4.7-.2-1.9.1-3.8.6-4.1.6-.4.6-1.3.1-2-1.2-1.9-1.1-7.2.1-8.1.6-.5.5-.8-.2-.8-.9 0-1-.7-.4-2.3.5-1.3.5-3 .1-3.7-.5-.8-.5-2.1 0-3 .5-.9.5-2.2.1-2.9-.5-.7-.6-2.7-.4-4.4.7-4.7.7-7-.2-9.1-.6-1.4-.5-1.7.4-1.1 1 .5 1.1.3.4-1.1-.5-1.1-.8-3.3-.5-4.9.2-1.7.3-4 .3-5.3-.1-2.7-.1-4.8-.1-6.5 0-.6-.1-2.8-.3-4.7-.2-1.9.1-3.8.6-4.1.6-.4.6-1.3.1-2-1.2-1.9-1.1-7.2.1-8.1.6-.5.5-.8-.2-.8-.9 0-1-.7-.4-2.3.5-1.3.5-3 .1-3.7-.5-.8-.5-2.1 0-3 .5-.9.5-2.2.1-2.9-.5-.7-.6-2.7-.4-4.4.7-4.7.7-7-.2-9.1-.6-1.4-.5-1.7.4-1.1 1 .5 1.1.3.4-1.1-.5-1.1-.8-3.3-.5-4.9.2-1.7.3-4 .3-5.3-.1-2.7-.1-4.8-.1-6.5 0-.6-.1-2.8-.3-4.7-.2-1.9.1-3.8.6-4.1.6-.4.6-1.3.1-2-1.2-1.9-1.1-7.2.1-8.1.6-.5.5-.8-.2-.8-.9 0-1-.7-.4-2.3.5-1.3.5-3 .1-3.7-.5-.8-.5-2.1 0-3 .5-.9.5-2.2.1-2.9-.5-.7-.6-2.7-.4-4.4.7-4.7.7-7-.2-9.1-.6-1.4-.5-1.7.4-1.1 1 .5 1.1.3.4-1.1-.5-1.1-.8-3.3-.5-4.9.2-1.7.3-4 .3-5.3-.1-2.7-.1-4.8-.1-6.5 0-.6-.1-2.8-.3-4.7-.2-1.9.1-3.8.6-4.1.6-.4.6-1.3.1-2-1.2-1.9-1.1-7.2.1-8.1.6-.5.5-.8-.2-.8-.9 0-1-.7-.4-2.3.5-1.3.5-3 .1-3.7-.5-.8-.5-2.1 0-3 .5-.9.5-2.2.1-2.9-.5-.7-.6-2.7-.4-4.4.7-4.7.7-7-.2-9.1-.6-1.4-.5-1.7.4-1.1 1 .5 1.1.3.4-1.1-.5-1.1-.8-3.3-.5-4.9.2-1.7.3-4 .3-5.3-.1-2.7-.1-4.8-.1-6.5 0-.6-.1-2.8-.3-4.7-.2-1.9.1-3.8.6-4.1.6-.4.6-1.3.1-2-1.2-1.9-1.1-7.2.1-8.1.6-.5.5-.8-.2-.8-.9 0-1-.7-.4-2.3.5-1.3.5-3 .1-3.7-.5-.8-.5-2.1 0-3 .5-.9.5-2.2.1-2.9-.5-.7-.6-2.7-.4-4.4.7-4.7.7-7-.2-9.1-.6-1.4-.5-1.7.4-1.1 1 .6 1.1.3.2-1.4-.7-1.2-.9-2.6-.6-3.1.3-.5 0-1.2-.6-1.5-.5-.4-.8-1.3-.5-2.1.3-.8.2-1.4-.2-1.4s-.8-.9-.9-2c-.1-1.1-1.3-4.2-2.7-6.9-1.3-2.7-2.1-5.3-1.8-5.7.4-.4.1-.3-.7.1-1.1.6-1.3.4-.8-.9.4-1 .3-1.5-.3-1.1-.6.4-1.4-.4-1.9-1.7-.4-1.3-1.2-2.2-1.7-2-.5.2-1-.2-1.3-.9-.2-.8.1-.9 1-.4.8.5 1.1.4.6-.1-.5-.5-1.2-.9-1.5-.9-.4 0-1.8-.8-3.2-1.8-1.3-.9-2-1.7-1.5-1.7.6 0-.1-.6-1.5-1.3-1.4-.8-5-2.7-8-4.4-5.6-3.1-6.2-3.3-8.1-3.3-.5 0-.8-.3-.6-.8.6-.8-819.1-.7-820 .1-.3.4-1.4.2-2.4-.4-1.4-.7-1.7-.6-1.4.4zm327.1 127.8c10.8 0 19.9-.2 20.2-.5.3-.3 1.1-.1 1.9.5.8.7 1.3.7 1.3.2 0-.7 1.5-.7 4-.3 2.3.4 4.3.3 4.6-.2.3-.5 1.2-.4 2 .3.8.6 1.4.7 1.4.2 0-.7 1.5-.7 4-.3 2.3.4 4.3.3 4.6-.2.3-.5 1.2-.4 2 .3.8.6 1.4.8 1.4.3s4.3-.7 9.6-.4c5.3.3 10.1.2 10.7-.2.6-.4 1.7-.2 2.4.4.8.6 1.3.7 1.3.1 0-.7 1.5-.7 4-.3 2.3.4 4.3.3 4.6-.2.3-.5 1.2-.4 2 .3.8.6 1.4.7 1.4.2 0-.7 1.5-.7 4-.3 2.3.4 4.3.3 4.6-.2.3-.5 1.2-.4 2 .3 1.1.9 1.4.9 1.4-.1 0-.9.4-.9 1.3-.2.8.7 1.8.7 2.7.2.9-.5 1.9-.5 2.7.2.8.6 1.3.7 1.3.1 0-.7 1.5-.7 4-.3 2.3.4 4.3.3 4.6-.2.3-.5 1.2-.4 2 .3.8.6 1.4.7 1.4.2 0-.7 1.5-.7 4-.3 2.3.4 4.3.3 4.6-.2.3-.5 1.2-.4 2 .3.8.6 1.4.7 1.4.2 0-.7 1.5-.7 4-.3 2.3.4 4.3.3 4.6-.2.3-.5 1.2-.4 2 .3.8.6 1.4.7 1.4.2 0-.5 2.7-.6 6.1-.3 3.3.3 6.3.2 6.6-.3.2-.4 1.1-.3 1.9.4.8.6 1.4.8 1.4.3s5.2-.7 11.6-.4c6.4.3 12.1.2 12.7-.2.6-.4 1.7-.2 2.4.4.8.6 1.3.7 1.3.1s1.5-.8 3.9-.3c2.5.4 4.4.3 5-.3.8-.8 1.1-.8 1.1 0 0 .6 1.1.8 2.7.5 2.2-.4 2.5-.2 1.9 1.3-.5 1.5-.4 1.6.8.6 1.6-1.4 4-.6 3.1 1-.4.5.2.6 1.1.2 1.3-.5 1.6-.3 1.1 1-.4 1.1-.2 1.4.8 1 1-.3 1.8.4 2.5 2.1.5 1.5 1.6 2.9 2.3 3.2.8.3 1.4 1 1.5 1.7 0 .7.4 2.3.8 3.7.8 2.6.9 27.1.2 30.5-.3 1.1-1 2-1.6 2-.6 0-1.4.4-1.9.9s-.3.6.5.2c1.4-.8 1.5-.5.6 1.8-.3.9-1.1 1.3-1.7.9-.6-.3-.7-.1-.3.5.4.6-.4 2.2-1.6 3.4-2.8 2.8-9.3 6.5-8.2 4.6.6-1 .5-1-.7-.2-2 1.6-5.9 2.4-5.9 1.3 0-.6-.8-.5-2 .1-1.4.8-2 .8-2 0s-.6-.8-2 0c-1.5.8-2 .8-2-.1s-.3-.9-1.4 0c-.9.7-1.7.8-2 .2-.7-1-2.4-1-4.3.2-.6.4-1.5.3-1.8-.3-.5-.8-1.1-.8-2 0-1 .8-1.5.8-2 0s-1-.8-2 0c-.9.8-1.5.8-2 0-.3-.6-1.2-.7-1.8-.3-1.7 1-4.7 1.1-5.3.1-.3-.5-1.2-.4-2 .3-1.1.9-1.4.9-1.4 0s-.5-.9-2-.1c-1.4.8-2 .8-2 0s-.6-.8-2 0-2 .8-2 0-.6-.8-2 0-2 .8-2 0-.6-.8-2 0c-1.5.8-2 .8-2-.1s-.3-.9-1.4 0c-1 .9-1.6.9-2.1.1s-1-.8-2 0c-.8.7-1.5.7-1.9.1-.7-1-2.4-1-4.3.2-.6.4-1.5.3-1.8-.3-.5-.8-1.1-.8-2 0-1 .8-1.5.8-2 0s-1-.8-2 0c-.9.8-1.5.8-2 0-.3-.6-1.2-.7-1.8-.3-1.7 1-4.7 1.1-5.3.1-.3-.5-1.2-.4-2 .3-1.1.9-1.4.9-1.4 0s-.5-.9-2-.1c-1.4.8-2 .8-2 0s-.6-.8-2 0-2 .8-2 0-.6-.8-2 0-2 .8-2 0-.6-.8-2 0-2 .8-2 0-.6-.8-2 0c-1.5.8-2 .8-2-.1s-.3-.9-1.4 0c-.9.7-1.7.8-2 .2-.7-1-2.4-1-4.3.2-.6.4-1.5.3-1.8-.3-.5-.8-1.1-.8-2 0-1 .8-1.5.8-2 0s-1-.8-2 0c-.9.8-1.5.8-2 0-.3-.6-1.2-.7-1.8-.3-1.6 1-3.8 1-5.9 0-1-.4-1.8-.4-1.8 0s-1.1.8-2.5.8-2.5-.4-2.5-.8-.9-.3-2 .3c-1.4.8-2 .8-2 0s-.6-.8-2 0-2 .8-2 0-.6-.8-2 0-2 .8-2 0-.6-.8-2 0c-1.5.8-2 .8-2-.1s-.3-.9-1.4 0c-1 .8-1.6.9-2.1.1-.4-.6-1.2-.7-2.3-.1-1 .6-2.3.6-3.4 0-1-.5-1.8-.6-1.8-.2 0 .4-1.1.8-2.5.8s-2.5-.4-2.5-.8-.9-.3-2 .3c-1.4.8-2 .8-2 0s-.6-.8-2 0-2 .8-2 0-.6-.8-2 0-2 .8-2 0-.6-.8-2 0c-1.5.8-2 .8-2-.1s-.3-.9-1.4 0c-1 .8-1.6.9-2.1.1-.4-.6-1.2-.7-2.3-.1-1.1.6-2.4.6-3.5 0-.9-.6-1.7-.6-1.7-.2 0 .4-1.1.8-2.5.8s-2.5-.4-2.5-.8-.9-.3-2 .3c-1.5.8-2 .8-2-.1s-.3-.9-1.4 0c-1 .9-1.6.9-2.1.1s-1-.8-2 0-1.5.8-2 0-1.1-.8-1.9-.1c-.7.6-1.6.8-2 .4-.3-.4-1.3-.8-2.1-1-.8-.2-2.1-.4-2.7-.6-2.6-.5-7.8-5.2-7.4-6.4.3-.7 0-1.5-.6-1.9-.7-.5-.8-.2-.3.7.8 1.2.6 1.2-.8 0-1-.8-1.5-1.6-1.2-1.9.3-.3 0-1.1-.6-1.9-.6-.7-.8-1.3-.3-1.3s.2-.5-.6-1c-1.2-.7-1.5-3.7-1.6-15.5-.1-8.9.2-14.5.8-14.5.5 0 .8-.6.5-1.3-.2-.6.5-1.8 1.7-2.5 1.8-1.2 1.9-1.3.2-.7-1.9.6-1.9.5-.3-1.3.9-1 1.4-2.2 1-2.5-.6-.7 1.2-1.1 3-.8.5.1.6-.2.3-.7-.6-1 4.4-5.8 5.7-5.4.4.1.7-.4.7-1.1 0-.8.4-.7 1 .3.7 1.2 1 1.2 1 .1 0-.7.6-1.1 1.3-.8.8.3 2 .1 2.7-.3.8-.5 1.7-.7 2.2-.4.4.3 9.6.5 20.4.5z"/><path d="M414 523.4c0 .2.8 1 1.8 1.7 1.5 1.3 1.6 1.2.3-.4s-2.1-2.1-2.1-1.3zM92.5 356c-.3.6.1.7.9.4 1.8-.7 2.1-1.4.7-1.4-.6 0-1.3.4-1.6 1z"/></svg>