<?xml version="1.0" standalone="no"?>
<!DOCTYPE svg PUBLIC "-//W3C//DTD SVG 20010904//EN"
 "http://www.w3.org/TR/2001/REC-SVG-20010904/DTD/svg10.dtd">
<svg version="1.0" xmlns="http://www.w3.org/2000/svg"
 width="1064.000000pt" height="1064.000000pt" viewBox="0 0 1064.000000 1064.000000"
 preserveAspectRatio="xMidYMid meet">
<metadata>
Created by potrace 1.11, written by Peter Selinger 2001-2013
</metadata>
<g transform="translate(0.000000,1064.000000) scale(0.100000,-0.100000)"
fill="#000000" stroke="none">
<path d="M589 9808 c-20 -21 -21 -21 -15 -3 6 20 6 20 -9 1 -8 -11 -15 -16
-15 -10 0 5 -4 3 -9 -5 -5 -8 -25 -15 -44 -15 -29 -1 -33 -3 -24 -15 9 -12 9
-13 0 -7 -7 4 -13 2 -13 -3 0 -6 -5 -11 -11 -11 -5 0 -7 6 -3 13 4 6 -14 -10
-40 -36 -26 -27 -49 -47 -52 -45 -2 3 5 13 16 23 11 10 20 23 20 29 0 6 -5 3
-11 -7 -6 -9 -16 -14 -22 -11 -7 4 -9 4 -5 -1 4 -4 3 -14 -3 -21 -6 -8 -9 -20
-5 -29 3 -8 2 -14 -2 -14 -20 3 -33 -2 -27 -11 6 -9 -8 -14 -28 -11 -4 1 -3
-8 3 -18 8 -17 7 -19 -9 -16 -14 2 -18 -1 -14 -15 3 -10 -1 -21 -8 -25 -8 -6
-10 -4 -4 5 5 9 4 11 -4 6 -9 -6 -9 -11 -1 -21 8 -9 8 -15 0 -20 -6 -3 -7 -11
-4 -17 5 -7 2 -9 -7 -6 -11 4 -14 -1 -13 -23 1 -16 -2 -32 -7 -35 -6 -3 -5
-11 2 -20 9 -11 9 -17 -1 -29 -7 -8 -8 -15 -3 -15 5 0 9 -9 10 -20 1 -11 -2
-18 -6 -16 -4 3 -6 -5 -5 -17 1 -12 3 -22 4 -22 6 0 4 -108 -2 -111 -5 -3 -4
-14 2 -24 13 -25 13 -33 -2 -24 -10 6 -10 4 0 -8 9 -11 10 -18 2 -23 -7 -4 -7
-12 0 -25 12 -23 13 -33 2 -26 -11 6 -9 -25 2 -42 4 -7 3 -18 -3 -25 -6 -8 -6
-18 -1 -27 12 -19 13 -33 2 -26 -10 6 -9 -24 1 -41 4 -6 3 -15 -3 -18 -8 -5
-7 -11 1 -21 8 -10 8 -18 1 -27 -7 -8 -7 -18 -2 -27 12 -19 13 -33 2 -26 -11
6 -9 -25 2 -42 4 -7 3 -18 -3 -25 -6 -8 -6 -18 -1 -27 14 -21 12 -32 -2 -24
-10 6 -10 4 0 -8 9 -11 10 -18 2 -23 -7 -4 -7 -12 0 -25 13 -24 13 -33 0 -25
-6 4 -7 -2 -2 -17 9 -26 8 -75 -1 -85 -4 -3 -2 -12 4 -20 8 -9 8 -17 1 -26 -7
-8 -7 -18 -2 -27 12 -19 13 -33 1 -26 -5 4 -8 -2 -6 -11 2 -10 4 -18 5 -18 0
0 3 -27 5 -59 2 -33 9 -64 16 -70 9 -8 10 -7 4 3 -5 9 -4 12 3 7 6 -3 11 -14
11 -24 2 -44 6 -55 28 -65 19 -8 21 -13 10 -25 -9 -13 -9 -14 1 -8 7 4 12 2
12 -5 0 -8 5 -7 17 2 9 8 14 9 11 4 -4 -6 0 -19 8 -30 8 -10 14 -16 14 -12 0
4 13 -5 29 -19 18 -16 27 -32 24 -41 -5 -12 -1 -14 18 -8 23 7 24 7 4 -9 -16
-13 -17 -15 -3 -10 11 4 20 0 24 -10 3 -9 10 -16 16 -16 5 0 6 5 3 10 -11 18
7 10 26 -12 11 -11 19 -17 19 -11 0 5 7 10 15 10 11 0 12 -4 3 -14 -8 -11 -7
-12 6 -7 10 4 26 -1 39 -12 21 -19 21 -19 7 0 -14 18 -14 19 15 4 23 -11 69
-14 203 -14 110 1 172 -2 172 -9 0 -6 3 -6 8 0 9 14 464 14 474 0 5 -7 8 -7 8
0 0 14 470 14 470 0 0 -6 3 -6 8 0 9 14 464 14 474 0 5 -6 8 -6 8 1 0 14 150
13 150 -1 0 -6 3 -6 8 0 9 14 464 14 474 0 5 -7 8 -7 8 0 0 14 470 14 470 0 0
-6 3 -6 8 0 9 14 464 14 474 0 5 -7 8 -7 8 0 0 14 470 14 470 0 0 -6 3 -6 8 0
10 14 472 14 472 0 0 -6 3 -6 8 0 10 14 3024 14 3034 0 5 -7 8 -7 8 0 0 14
462 14 472 0 5 -7 8 -7 8 0 0 14 470 14 470 0 0 -6 3 -6 8 0 9 14 464 14 474
0 5 -7 8 -7 8 0 0 7 97 10 284 10 156 0 282 3 280 7 -2 3 0 9 6 13 5 3 10 0
10 -7 0 -9 3 -10 8 -2 4 6 15 10 24 9 11 -2 15 2 11 12 -5 13 -3 14 12 6 13
-8 22 -6 36 8 11 11 31 19 47 19 22 0 24 2 12 11 -12 9 -11 10 7 6 12 -3 22
-2 21 2 -3 26 4 42 16 38 8 -3 20 2 28 11 12 16 11 16 -6 2 -18 -14 -19 -14
-6 7 11 17 17 19 27 11 11 -8 12 -7 7 7 -6 13 -4 16 5 10 10 -6 11 -2 6 16 -7
23 -7 23 8 4 9 -11 19 -17 23 -12 4 4 2 7 -6 7 -10 0 -10 4 1 17 12 14 12 16
-1 9 -8 -4 -4 1 9 12 15 12 22 25 18 35 -4 12 -2 14 10 10 11 -4 14 -2 9 5 -4
7 -2 12 4 12 6 0 8 5 5 10 -3 6 -1 10 5 10 6 0 8 5 5 10 -3 6 -1 10 5 10 6 0
10 8 8 18 -2 9 2 16 9 15 9 -2 10 4 4 20 -9 25 -4 50 9 42 5 -3 7 3 5 12 -1
10 2 23 7 30 5 7 5 14 -2 18 -7 4 -7 12 0 24 5 10 7 21 3 24 -10 10 -10 72 0
78 6 4 6 13 1 20 -12 19 -11 72 1 81 6 5 5 8 -2 8 -9 0 -10 7 -4 23 5 13 6 30
1 37 -4 7 -4 25 0 41 5 15 6 30 3 33 -10 10 -9 71 0 77 6 4 6 13 1 20 -12 19
-11 72 1 81 6 5 5 8 -2 8 -9 0 -10 7 -4 23 5 13 6 30 1 37 -4 7 -4 25 0 41 5
15 6 30 3 33 -10 10 -9 71 0 77 6 4 6 13 1 20 -12 19 -11 72 1 81 6 5 5 8 -2
8 -9 0 -10 7 -4 23 5 13 5 30 1 37 -5 8 -4 22 1 32 6 12 6 18 -1 18 -5 0 -10
9 -10 20 0 11 -6 20 -12 20 -9 0 -8 4 2 10 11 7 11 10 2 10 -7 0 -10 5 -6 11
3 6 0 15 -7 20 -10 6 -10 9 -2 9 7 0 10 7 7 15 -4 8 -10 12 -15 9 -5 -3 -9 -2
-8 3 4 22 -2 44 -10 39 -5 -4 -7 4 -3 16 3 14 2 19 -6 14 -16 -10 -15 7 1 23
10 10 9 11 -3 6 -16 -6 -41 22 -69 77 -8 16 -16 26 -19 23 -3 -2 1 -11 8 -20
7 -9 10 -18 6 -22 -3 -3 -6 -1 -6 6 0 7 -5 9 -10 6 -6 -4 -10 -3 -9 2 4 21 -2
43 -12 43 -5 0 -7 -4 -4 -10 10 -16 -1 -11 -16 7 -8 10 -9 14 -2 10 6 -4 14
-4 17 1 2 4 -5 9 -16 9 -12 1 -24 7 -28 13 -4 7 -10 11 -14 11 -19 -3 -26 0
-26 10 0 5 5 7 12 3 7 -4 8 -3 4 5 -6 9 -11 9 -22 0 -11 -9 -15 -8 -20 4 -3 9
-12 13 -21 10 -9 -4 -22 1 -29 12 -8 11 -14 13 -14 6 0 -9 -4 -8 -15 3 -9 8
-23 12 -32 9 -12 -5 -14 -3 -8 7 5 9 4 11 -3 6 -20 -12 -92 -14 -92 -3 0 7 -4
7 -11 0 -8 -8 -20 -8 -36 -2 -15 5 -22 5 -18 0 3 -6 -4 -9 -15 -8 -11 1 -20 5
-20 10 0 6 -5 6 -12 0 -14 -10 -76 -10 -103 1 -9 3 -13 2 -10 -4 3 -5 -4 -8
-15 -7 -11 1 -20 5 -20 10 0 5 -7 3 -17 -4 -9 -8 -19 -12 -22 -10 -19 11 -51
20 -46 12 3 -6 -4 -9 -15 -8 -11 1 -20 5 -20 10 0 5 -7 3 -17 -4 -9 -8 -19
-12 -22 -10 -19 11 -51 20 -46 12 3 -6 -4 -9 -15 -8 -11 1 -20 5 -20 10 0 5
-6 5 -12 -1 -18 -15 -20 -15 -51 -3 -16 6 -26 7 -22 2 3 -6 -4 -9 -15 -8 -11
1 -20 5 -20 10 0 5 -6 5 -13 -2 -10 -8 -17 -7 -27 2 -9 9 -11 9 -6 0 4 -8 -1
-11 -14 -10 -11 1 -20 5 -20 10 0 5 -7 3 -17 -4 -9 -8 -19 -12 -22 -10 -19 11
-51 20 -46 12 3 -6 -4 -9 -15 -8 -11 1 -20 5 -20 10 0 5 -7 3 -17 -4 -9 -8
-19 -12 -22 -10 -19 11 -51 20 -46 12 3 -6 -4 -9 -15 -8 -11 1 -20 5 -20 10 0
5 -7 4 -15 -3 -12 -10 -18 -10 -29 -1 -10 9 -16 9 -21 1 -5 -8 -11 -8 -19 -1
-7 6 -16 8 -19 5 -8 -9 -77 -12 -77 -4 0 4 -7 7 -15 7 -8 0 -12 -4 -9 -8 2 -4
-5 -7 -16 -6 -11 1 -20 5 -20 10 0 5 -7 3 -17 -4 -9 -8 -19 -12 -22 -10 -19
11 -51 20 -46 12 3 -6 -4 -9 -15 -8 -11 1 -20 5 -20 10 0 5 -7 3 -17 -4 -9 -8
-17 -13 -17 -12 -1 1 -14 6 -29 12 -16 6 -26 7 -22 2 3 -6 -4 -9 -15 -8 -11 1
-20 5 -20 10 0 5 -7 4 -15 -3 -12 -10 -18 -10 -29 -1 -10 9 -16 9 -21 1 -5 -8
-11 -8 -19 -1 -7 6 -16 8 -19 5 -11 -11 -77 -11 -77 0 0 6 -4 5 -9 -3 -6 -9
-10 -10 -16 -2 -5 9 -10 9 -20 1 -9 -8 -15 -8 -20 0 -3 6 -11 7 -17 4 -14 -9
-78 -12 -78 -4 0 4 -7 7 -15 7 -8 0 -12 -4 -9 -8 2 -4 -5 -7 -16 -6 -11 1 -20
5 -20 10 0 5 -7 3 -17 -4 -9 -8 -17 -13 -17 -12 -1 1 -14 6 -29 12 -16 6 -26
7 -22 2 3 -6 -4 -9 -15 -8 -11 1 -20 5 -20 10 0 5 -7 3 -17 -4 -9 -8 -17 -13
-17 -12 -1 1 -14 6 -29 12 -16 6 -26 7 -22 2 3 -6 -4 -9 -15 -8 -11 1 -20 5
-20 10 0 5 -7 4 -15 -3 -12 -10 -18 -10 -29 -1 -10 9 -16 9 -21 1 -5 -8 -11
-8 -19 -1 -7 6 -16 8 -19 5 -8 -9 -77 -12 -77 -4 0 4 -7 7 -15 7 -8 0 -12 -4
-9 -8 2 -4 -5 -7 -16 -6 -11 1 -20 5 -20 10 0 4 -6 5 -12 0 -17 -10 -29 -11
-56 -1 -14 5 -21 4 -17 -1 3 -6 -4 -9 -15 -8 -11 1 -20 5 -20 10 0 4 -6 5 -12
0 -17 -10 -29 -11 -56 -1 -14 5 -21 4 -17 -1 3 -6 -4 -9 -15 -8 -11 1 -20 5
-20 10 0 5 -6 5 -13 -2 -10 -8 -17 -7 -27 2 -9 9 -11 9 -6 0 4 -8 -1 -11 -14
-10 -11 1 -20 5 -20 10 0 4 -6 5 -12 0 -17 -10 -29 -11 -56 -1 -14 5 -21 4
-17 -1 3 -6 -4 -9 -15 -8 -11 1 -20 5 -20 10 0 4 -6 5 -12 0 -17 -10 -29 -11
-56 -1 -14 5 -21 4 -17 -1 3 -6 -4 -9 -15 -8 -11 1 -20 5 -20 10 0 4 -6 5 -12
0 -17 -10 -29 -11 -56 -1 -14 5 -21 4 -17 -1 3 -6 -4 -9 -15 -8 -11 1 -20 5
-20 10 0 6 -5 6 -12 0 -14 -10 -76 -10 -103 1 -9 3 -13 2 -10 -4 3 -5 -4 -8
-15 -7 -11 1 -20 5 -20 10 0 4 -6 5 -12 0 -18 -10 -68 -11 -75 0 -2 4 -11 3
-18 -3 -9 -8 -15 -8 -20 0 -3 6 -11 7 -17 4 -14 -9 -78 -12 -78 -4 0 4 -7 7
-15 7 -8 0 -12 -4 -9 -8 2 -4 -5 -7 -16 -6 -11 1 -20 5 -20 10 0 4 -6 5 -12 0
-17 -10 -29 -11 -56 -1 -14 5 -21 4 -17 -1 3 -6 -4 -9 -15 -8 -11 1 -20 5 -20
10 0 4 -6 5 -12 0 -17 -10 -29 -11 -56 -1 -14 5 -21 4 -17 -1 3 -6 -4 -9 -15
-8 -11 1 -20 5 -20 10 0 5 -7 4 -15 -3 -12 -10 -18 -10 -29 -1 -10 9 -16 9
-21 1 -5 -8 -11 -8 -19 -1 -7 6 -16 8 -19 5 -11 -11 -77 -11 -77 0 0 6 -4 6
-11 -1 -8 -8 -20 -8 -36 -2 -15 5 -22 5 -18 0 3 -6 -4 -9 -15 -8 -11 1 -20 5
-20 10 0 6 -5 6 -12 0 -14 -10 -76 -10 -103 1 -9 3 -13 2 -10 -4 3 -5 -4 -8
-15 -7 -11 1 -20 5 -20 10 0 4 -6 5 -12 0 -17 -10 -29 -11 -56 -1 -14 5 -21 4
-17 -1 3 -6 -4 -9 -15 -8 -11 1 -20 5 -20 10 0 5 -7 3 -17 -4 -9 -8 -19 -12
-22 -10 -19 11 -51 20 -46 12 3 -6 -4 -9 -15 -8 -11 1 -20 5 -20 10 0 5 -6 5
-12 -1 -15 -12 -25 -12 -56 -1 -14 6 -21 5 -17 0 3 -6 -4 -9 -15 -8 -11 1 -20
5 -20 10 0 5 -6 5 -13 -2 -10 -8 -17 -7 -27 2 -9 9 -11 9 -6 0 4 -8 -1 -11
-14 -10 -11 1 -20 5 -20 10 0 5 -7 3 -17 -4 -9 -8 -17 -13 -17 -12 -1 1 -14 6
-29 12 -16 6 -26 7 -22 2 3 -6 -4 -9 -15 -8 -11 1 -20 5 -20 10 0 5 -7 3 -17
-4 -9 -8 -19 -12 -22 -10 -19 11 -51 20 -46 12 3 -6 -4 -9 -15 -8 -11 1 -20 5
-20 10 0 5 -7 4 -15 -3 -12 -10 -18 -10 -29 -1 -10 9 -16 9 -21 1 -5 -8 -11
-8 -19 -1 -7 6 -16 8 -19 5 -8 -9 -77 -12 -77 -4 0 4 -7 7 -15 7 -8 0 -12 -4
-9 -8 2 -4 -5 -7 -16 -6 -11 1 -20 5 -20 10 0 5 -7 3 -17 -4 -9 -8 -19 -12
-22 -10 -19 11 -51 20 -46 12 3 -6 -4 -9 -15 -8 -11 1 -20 5 -20 10 0 5 -7 3
-17 -4 -9 -8 -17 -13 -17 -12 -1 1 -14 6 -29 12 -16 6 -26 7 -22 2 3 -6 -4 -9
-15 -8 -11 1 -20 5 -20 10 0 5 -7 4 -15 -3 -12 -10 -18 -10 -29 -1 -10 9 -16
9 -21 1 -5 -8 -11 -8 -19 -1 -7 6 -16 8 -19 5 -11 -11 -77 -11 -77 0 0 6 -4 5
-9 -3 -6 -9 -10 -10 -16 -2 -5 9 -10 9 -20 1 -9 -8 -15 -8 -20 0 -3 6 -11 7
-17 4 -14 -9 -78 -12 -78 -4 0 4 -7 7 -15 7 -8 0 -12 -4 -9 -8 2 -4 -5 -7 -16
-6 -11 1 -20 5 -20 10 0 5 -7 3 -17 -4 -9 -8 -19 -12 -22 -10 -19 11 -51 20
-46 12 3 -6 -4 -9 -15 -8 -11 1 -20 5 -20 10 0 4 -6 5 -13 0 -16 -10 -28 -11
-55 -1 -14 5 -21 4 -17 -1 3 -6 -4 -9 -15 -8 -11 1 -20 5 -20 10 0 5 -7 4 -15
-3 -12 -10 -18 -10 -29 -1 -10 9 -16 9 -21 1 -5 -8 -11 -8 -19 -1 -7 6 -16 8
-19 5 -8 -9 -77 -12 -77 -4 0 4 -7 7 -15 7 -8 0 -12 -4 -9 -8 2 -4 -5 -7 -16
-6 -11 1 -20 5 -20 10 0 4 -6 5 -12 0 -17 -10 -29 -11 -56 -1 -14 5 -21 4 -17
-1 3 -6 -4 -9 -15 -8 -11 1 -20 5 -20 10 0 4 -6 5 -12 0 -17 -10 -29 -11 -56
-1 -14 5 -21 4 -17 -1 3 -6 -4 -9 -15 -8 -11 1 -20 5 -20 10 0 5 -6 5 -13 -2
-10 -8 -17 -7 -27 2 -9 9 -11 9 -6 0 4 -8 -1 -11 -14 -10 -11 1 -20 5 -20 10
0 4 -6 5 -12 0 -17 -10 -29 -11 -56 -1 -14 5 -21 4 -17 -1 3 -6 -4 -9 -15 -8
-11 1 -20 5 -20 10 0 4 -6 5 -12 0 -17 -10 -29 -11 -56 -1 -14 5 -21 4 -17 -1
3 -6 -4 -9 -15 -8 -11 1 -20 5 -20 10 0 4 -6 5 -12 0 -17 -10 -29 -11 -56 -1
-14 5 -21 4 -17 -1 3 -6 -4 -9 -15 -8 -11 1 -20 5 -20 10 0 6 -5 6 -12 0 -14
-10 -76 -10 -103 1 -9 3 -13 2 -10 -4 3 -5 -4 -8 -15 -7 -11 1 -20 5 -20 10 0
4 -6 5 -12 0 -18 -10 -68 -11 -75 0 -2 4 -11 3 -18 -3 -9 -8 -15 -8 -20 0 -3
6 -11 7 -17 4 -14 -9 -78 -12 -78 -4 0 4 -7 7 -15 7 -8 0 -12 -4 -9 -8 2 -4
-5 -7 -16 -6 -11 1 -20 5 -20 10 0 5 -6 5 -12 -1 -18 -15 -20 -15 -51 -3 -16
6 -26 7 -22 2 3 -6 -4 -9 -15 -8 -11 1 -20 5 -20 10 0 5 -6 5 -12 -1 -15 -12
-25 -12 -56 -1 -14 6 -21 5 -17 0 3 -6 -4 -9 -15 -8 -11 1 -20 5 -20 10 0 5
-7 4 -15 -3 -12 -10 -18 -10 -29 -1 -10 9 -16 9 -21 1 -5 -8 -11 -8 -19 -1 -7
6 -16 8 -19 5 -11 -11 -77 -11 -77 0 0 6 -4 6 -11 -1 -8 -8 -20 -8 -36 -2 -15
5 -22 5 -18 0 3 -6 -4 -9 -15 -8 -11 1 -20 5 -20 10 0 6 -5 6 -12 0 -14 -10
-76 -10 -103 1 -9 3 -13 2 -10 -4 3 -5 -4 -8 -15 -7 -11 1 -20 5 -20 10 0 4
-6 5 -12 0 -17 -10 -29 -11 -56 -1 -14 5 -21 4 -17 -1 3 -6 -4 -9 -15 -8 -11
1 -20 5 -20 10 0 5 -6 5 -12 -1 -18 -15 -20 -15 -51 -3 -16 6 -26 7 -22 2 3
-6 -4 -9 -15 -8 -11 1 -20 5 -20 10 0 5 -7 3 -17 -4 -9 -8 -17 -13 -17 -12 -1
1 -14 6 -29 12 -16 6 -26 7 -22 2 3 -6 -4 -9 -15 -8 -11 1 -20 5 -20 10 0 5
-6 5 -13 -2 -10 -8 -17 -7 -27 2 -9 9 -11 9 -6 0 4 -8 -1 -11 -14 -10 -11 1
-20 5 -20 10 0 5 -7 3 -17 -4 -9 -8 -19 -12 -22 -10 -19 11 -51 20 -46 12 3
-6 -4 -9 -15 -8 -11 1 -20 5 -20 10 0 4 -6 5 -12 0 -17 -10 -29 -11 -56 -1
-14 5 -21 4 -17 -1 3 -6 -4 -9 -15 -8 -11 1 -20 5 -20 10 0 5 -7 4 -15 -3 -12
-10 -18 -10 -29 -1 -10 9 -16 9 -21 1 -5 -8 -11 -8 -19 -1 -7 6 -16 8 -19 5
-8 -9 -77 -12 -77 -4 0 4 -7 7 -15 7 -8 0 -12 -4 -9 -8 2 -4 -5 -7 -16 -6 -11
1 -20 5 -20 10 0 4 -6 5 -12 0 -17 -10 -29 -11 -56 -1 -14 5 -21 4 -17 -1 3
-6 -4 -9 -15 -8 -11 1 -20 5 -20 10 0 4 -6 5 -12 0 -17 -10 -29 -11 -56 -1
-14 5 -21 4 -17 -1 3 -6 -4 -9 -15 -8 -11 1 -20 5 -20 10 0 5 -7 4 -15 -3 -12
-10 -18 -10 -29 -1 -10 9 -16 9 -21 1 -5 -8 -11 -8 -19 -1 -7 6 -16 8 -19 4
-11 -10 -72 -10 -79 1 -5 7 -8 6 -8 -3 0 -10 -3 -11 -14 -2 -11 10 -19 7 -37
-11z"/>
<path d="M507 9796 c-4 -10 -1 -13 8 -9 8 3 12 9 9 14 -7 12 -11 11 -17 -5z"/>
<path d="M10326 9638 c3 -4 9 -8 15 -8 5 0 9 4 9 8 0 5 -7 9 -15 9 -8 0 -12
-4 -9 -9z"/>
<path d="M368 8037 c12 -7 20 -15 17 -18 -3 -3 2 -6 12 -6 13 0 11 4 -7 19
-12 10 -27 18 -34 18 -6 -1 -1 -6 12 -13z"/>
<path d="M1176 7253 c-6 -14 -5 -15 5 -6 7 7 10 15 7 18 -3 3 -9 -2 -12 -12z"/>
<path d="M1256 7262 c-3 -5 -15 -8 -28 -7 -13 1 -29 -4 -36 -11 -7 -7 -20 -10
-29 -7 -11 5 -14 3 -8 -6 6 -10 3 -11 -13 -2 -22 12 -39 0 -27 -18 3 -6 -3 -8
-13 -6 -13 2 -24 -5 -32 -21 -8 -13 -18 -24 -23 -24 -6 0 -2 10 9 23 19 22 19
22 -2 4 -11 -9 -24 -14 -28 -10 -4 5 -7 3 -6 -2 5 -22 -1 -35 -12 -32 -8 1
-12 -7 -12 -21 1 -17 -2 -20 -11 -12 -18 15 -39 -12 -22 -29 9 -10 9 -11 -4
-6 -10 4 -20 1 -25 -6 -4 -8 -3 -10 4 -5 8 5 10 2 6 -8 -3 -9 -10 -13 -15 -10
-5 3 -14 2 -21 -2 -7 -5 -5 -11 7 -21 17 -11 17 -13 2 -13 -9 0 -22 -10 -28
-22 -11 -21 -11 -22 5 -9 14 12 16 12 10 -3 -3 -9 -12 -16 -20 -16 -14 0 -17
-8 -16 -45 0 -11 -5 -23 -12 -27 -8 -5 -7 -8 3 -8 10 0 11 -3 3 -13 -7 -8 -7
-18 -2 -27 13 -20 12 -33 0 -25 -6 4 -7 -2 -2 -17 9 -26 8 -75 -1 -85 -4 -3
-2 -12 4 -20 8 -9 8 -17 1 -26 -7 -8 -7 -18 -2 -27 12 -19 13 -33 2 -26 -5 3
-7 -5 -6 -17 1 -12 3 -22 4 -22 6 0 4 -169 -2 -178 -4 -6 -2 -17 4 -24 7 -9 7
-17 0 -26 -7 -8 -7 -18 -2 -27 12 -19 13 -33 2 -26 -5 3 -7 -5 -6 -17 1 -12 3
-22 4 -22 6 0 4 -89 -2 -98 -4 -6 -2 -17 4 -24 7 -9 7 -17 0 -26 -7 -8 -7 -18
-2 -27 12 -19 13 -33 2 -26 -10 6 -9 -24 1 -41 4 -6 3 -15 -3 -18 -8 -5 -7
-11 1 -21 8 -10 8 -18 1 -27 -7 -8 -7 -18 -2 -27 12 -19 13 -33 2 -26 -11 6
-9 -25 2 -42 4 -7 3 -18 -3 -25 -6 -8 -6 -18 -1 -27 14 -21 12 -32 -2 -24 -10
6 -10 4 0 -8 9 -11 10 -18 2 -23 -7 -4 -7 -12 0 -25 13 -24 13 -33 0 -25 -6 4
-7 -2 -2 -17 9 -26 8 -75 -1 -85 -4 -3 -2 -12 4 -20 8 -9 8 -17 1 -26 -7 -8
-7 -18 -2 -27 12 -19 13 -33 2 -26 -5 3 -7 -5 -6 -17 1 -12 3 -22 4 -22 6 0 4
-108 -2 -111 -5 -3 -4 -14 2 -24 13 -25 13 -33 -2 -24 -10 6 -10 4 0 -8 9 -11
10 -18 2 -23 -7 -4 -7 -12 0 -25 12 -23 13 -33 2 -26 -11 6 -9 -25 2 -42 4 -7
3 -18 -3 -25 -6 -8 -6 -18 -1 -27 12 -19 13 -33 2 -26 -10 6 -9 -24 1 -41 4
-6 3 -15 -3 -18 -8 -5 -7 -11 1 -21 8 -10 8 -18 1 -27 -7 -8 -7 -18 -2 -27 12
-19 13 -33 2 -26 -5 3 -7 -5 -6 -17 1 -12 3 -22 4 -22 6 0 4 -89 -2 -98 -4 -6
-2 -17 4 -24 7 -9 7 -17 0 -26 -7 -8 -7 -18 -2 -27 12 -19 13 -33 2 -26 -5 3
-7 -5 -6 -17 1 -12 3 -22 4 -22 6 0 4 -169 -2 -178 -4 -6 -2 -17 4 -24 7 -9 7
-17 0 -26 -7 -8 -7 -18 -2 -27 12 -19 13 -33 2 -26 -5 3 -7 -5 -6 -17 1 -12 3
-22 4 -22 6 0 4 -108 -2 -111 -5 -3 -4 -14 2 -24 13 -25 13 -33 -2 -24 -10 6
-10 4 0 -8 9 -11 10 -18 2 -23 -7 -4 -7 -12 0 -25 13 -24 13 -33 0 -25 -6 4
-7 -2 -2 -17 9 -26 8 -75 -1 -85 -4 -3 -2 -12 4 -20 8 -9 8 -17 1 -26 -7 -8
-7 -18 -2 -27 12 -19 13 -33 2 -26 -5 3 -7 -5 -6 -17 1 -12 3 -22 4 -22 6 0 4
-108 -2 -111 -5 -3 -4 -14 2 -24 13 -25 13 -33 -2 -24 -10 6 -10 4 0 -8 9 -11
10 -18 2 -23 -7 -4 -7 -12 0 -25 13 -25 13 -33 -2 -24 -10 6 -10 4 0 -8 9 -11
10 -18 2 -23 -7 -4 -7 -12 0 -25 13 -25 13 -33 -2 -24 -10 6 -10 4 0 -8 9 -11
10 -18 2 -23 -7 -4 -7 -12 0 -25 13 -24 13 -33 0 -25 -6 4 -7 -2 -2 -17 9 -26
8 -75 -1 -85 -4 -3 -2 -12 4 -20 8 -9 8 -17 1 -26 -7 -8 -7 -18 -2 -27 12 -19
13 -33 2 -26 -5 3 -7 -5 -6 -17 1 -12 3 -22 4 -22 6 0 4 -108 -2 -111 -5 -3
-4 -14 2 -24 13 -25 13 -33 -2 -24 -10 6 -10 4 0 -8 9 -11 10 -18 2 -23 -7 -4
-7 -12 0 -25 13 -24 13 -33 0 -25 -6 4 -7 -2 -2 -17 9 -26 8 -75 -1 -85 -4 -3
-2 -12 4 -20 8 -9 8 -17 1 -26 -7 -8 -7 -18 -2 -27 12 -19 13 -33 2 -26 -5 3
-7 -5 -6 -17 1 -12 3 -22 4 -22 6 0 4 -169 -2 -178 -4 -6 -2 -17 4 -24 7 -9 7
-17 0 -26 -7 -8 -7 -18 -2 -27 12 -19 13 -33 2 -26 -5 3 -7 -5 -6 -17 1 -12 3
-22 4 -22 6 0 4 -89 -2 -98 -4 -6 -2 -17 4 -24 7 -9 7 -17 0 -26 -7 -8 -7 -18
-2 -27 12 -19 13 -33 2 -26 -10 6 -9 -24 1 -41 4 -6 3 -15 -3 -18 -8 -5 -7
-11 1 -21 8 -10 8 -18 1 -27 -7 -8 -7 -18 -2 -27 12 -19 13 -33 2 -26 -11 6
-9 -25 2 -42 4 -7 3 -18 -3 -25 -6 -8 -6 -18 -1 -27 14 -21 12 -32 -2 -24 -10
6 -10 4 0 -8 9 -11 10 -18 2 -23 -7 -4 -7 -12 0 -25 13 -24 13 -33 0 -25 -6 4
-7 -2 -2 -17 9 -26 8 -75 -1 -85 -4 -3 -2 -12 4 -20 8 -9 8 -17 1 -26 -7 -8
-7 -18 -2 -27 12 -19 13 -33 2 -26 -5 3 -7 -5 -6 -17 1 -12 3 -22 4 -22 6 0 4
-108 -2 -111 -5 -3 -4 -14 2 -24 13 -25 13 -33 -2 -24 -10 6 -10 4 0 -8 9 -11
10 -18 2 -23 -7 -4 -7 -12 0 -25 12 -23 13 -33 2 -26 -11 6 -9 -25 2 -42 4 -7
3 -18 -3 -25 -6 -8 -6 -18 -1 -27 5 -9 5 -19 -2 -27 -8 -10 -7 -12 6 -7 12 5
15 2 10 -10 -3 -9 -1 -16 5 -16 6 0 8 -6 5 -14 -3 -8 -1 -17 5 -20 6 -4 8 -13
4 -21 -3 -10 1 -15 11 -15 14 0 15 -3 5 -22 -11 -21 -11 -22 5 -9 9 8 16 10
14 5 -2 -5 7 -20 19 -34 13 -13 23 -28 23 -32 0 -5 6 -6 13 -2 7 5 7 2 -2 -10
-8 -9 -10 -16 -5 -15 5 2 19 0 31 -4 15 -6 20 -15 19 -32 -3 -21 -1 -22 21
-14 13 5 22 5 19 0 -3 -5 2 -15 11 -22 12 -10 14 -10 9 -1 -4 6 -2 12 3 12 6
0 11 -7 11 -16 0 -8 4 -13 9 -10 11 7 61 -16 61 -29 0 -5 5 -3 10 5 8 13 10
12 10 -2 0 -19 20 -20 32 -3 5 6 8 3 8 -7 0 -14 9 -16 50 -14 28 1 50 -2 50
-7 0 -4 6 -5 12 -1 19 12 48 12 48 1 0 -5 6 -4 14 2 10 8 16 9 21 1 3 -6 12
-7 18 -3 17 10 47 11 47 1 0 -5 5 -6 11 -2 16 10 149 11 149 1 0 -5 6 -5 12
-1 19 12 48 12 48 1 0 -5 6 -4 14 2 10 8 16 9 21 1 3 -6 12 -7 18 -3 17 10 47
11 47 1 0 -5 5 -6 12 -2 16 10 108 11 108 1 0 -5 6 -5 12 -1 18 11 48 12 48 2
0 -5 6 -6 12 -2 18 11 48 12 48 2 0 -5 6 -6 12 -2 18 11 48 12 48 2 0 -5 6 -6
12 -2 18 11 48 12 48 2 0 -5 5 -6 12 -2 16 10 228 11 228 1 0 -5 6 -5 12 -1
18 11 48 12 48 2 0 -5 6 -6 12 -2 18 11 48 12 48 2 0 -5 6 -6 12 -2 18 11 48
12 48 2 0 -5 6 -6 12 -2 18 11 48 12 48 2 0 -5 5 -6 12 -2 16 10 228 11 228 1
0 -5 6 -5 12 -1 18 11 48 12 48 2 0 -5 6 -6 12 -2 18 11 48 12 48 2 0 -5 6 -6
12 -2 18 11 48 12 48 2 0 -5 6 -6 12 -2 18 11 48 12 48 2 0 -5 6 -6 12 -1 17
10 108 10 108 0 0 -5 6 -5 12 -1 19 12 48 12 48 1 0 -5 6 -4 14 2 10 8 16 9
21 1 3 -6 12 -7 18 -3 17 10 47 11 47 1 0 -5 5 -6 11 -2 16 10 149 11 149 1 0
-5 6 -5 12 -1 19 12 48 12 48 1 0 -5 6 -4 14 2 10 8 16 9 21 1 3 -6 12 -7 18
-3 17 10 47 11 47 1 0 -5 5 -6 12 -2 16 10 108 11 108 1 0 -5 6 -5 12 -1 18
11 48 12 48 2 0 -5 6 -6 12 -2 18 11 48 12 48 2 0 -5 6 -6 12 -2 18 11 48 12
48 2 0 -5 6 -6 12 -2 18 11 48 12 48 2 0 -5 5 -6 12 -2 16 10 228 11 228 1 0
-5 6 -5 12 -1 18 11 48 12 48 2 0 -5 6 -6 12 -2 18 11 48 12 48 2 0 -5 6 -6
12 -2 18 11 48 12 48 2 0 -5 6 -6 12 -2 18 11 48 12 48 2 0 -5 5 -6 12 -2 16
10 228 11 228 1 0 -5 6 -5 12 -1 18 11 48 12 48 2 0 -5 6 -6 12 -2 18 11 48
12 48 2 0 -5 6 -6 12 -2 18 11 48 12 48 2 0 -5 6 -6 12 -2 18 11 48 12 48 2 0
-5 6 -6 12 -1 17 10 108 10 108 0 0 -5 6 -5 12 -1 19 12 48 12 48 1 0 -5 6 -4
14 2 10 8 16 9 21 1 3 -6 12 -7 18 -3 17 10 47 11 47 1 0 -5 5 -6 11 -2 16 10
149 11 149 1 0 -5 6 -5 12 -1 19 12 48 12 48 1 0 -5 6 -4 14 2 10 8 16 9 21 1
3 -6 12 -7 18 -3 17 10 47 11 47 1 0 -5 5 -6 12 -2 16 10 108 11 108 1 0 -5 6
-5 12 -1 18 11 48 12 48 2 0 -5 6 -6 12 -2 18 11 48 12 48 2 0 -5 6 -6 12 -2
18 11 48 12 48 2 0 -5 6 -6 12 -2 18 11 48 12 48 2 0 -5 5 -6 12 -2 16 10 228
11 228 1 0 -5 6 -5 12 -1 18 11 48 12 48 2 0 -5 6 -6 12 -2 18 11 48 12 48 2
0 -5 6 -6 12 -2 18 11 48 12 48 2 0 -5 6 -6 12 -2 18 11 48 12 48 2 0 -5 5 -6
12 -2 16 10 228 11 228 1 0 -5 6 -5 12 -1 18 11 48 12 48 2 0 -5 6 -6 12 -2
18 11 48 12 48 2 0 -5 6 -6 12 -2 18 11 48 12 48 2 0 -5 6 -6 12 -2 18 11 48
12 48 2 0 -5 6 -6 12 -1 17 10 108 10 108 0 0 -5 6 -5 12 -1 19 12 48 12 48 1
0 -5 6 -4 14 2 10 8 16 9 21 1 3 -6 12 -7 18 -3 17 10 47 11 47 1 0 -5 5 -6
11 -2 16 10 149 11 149 1 0 -5 6 -5 12 -1 19 12 48 12 48 1 0 -5 6 -4 14 2 10
8 16 9 21 1 3 -6 12 -7 18 -3 17 10 47 11 47 1 0 -5 5 -6 12 -2 16 10 108 11
108 1 0 -5 6 -5 12 -1 18 11 48 12 48 2 0 -5 6 -6 12 -2 18 11 48 12 48 2 0
-5 6 -6 12 -2 18 11 48 12 48 2 0 -5 6 -6 12 -2 18 11 48 12 48 2 0 -5 5 -6
12 -2 16 10 228 11 228 1 0 -5 6 -5 12 -1 18 11 48 12 48 2 0 -5 6 -6 12 -2
18 11 48 12 48 2 0 -5 6 -6 12 -2 18 11 48 12 48 2 0 -5 6 -6 12 -2 18 11 48
12 48 2 0 -5 5 -6 12 -2 16 10 228 11 228 1 0 -5 6 -5 12 -1 18 11 48 12 48 2
0 -5 6 -6 12 -2 18 11 48 12 48 2 0 -5 6 -6 12 -2 18 11 48 12 48 2 0 -5 6 -6
12 -2 18 11 48 12 48 2 0 -5 6 -6 12 -1 17 10 108 10 108 0 0 -5 6 -5 12 -1
19 12 48 12 48 1 0 -5 6 -4 14 2 10 8 16 9 21 1 3 -6 12 -7 18 -3 17 10 47 11
47 1 0 -5 5 -6 11 -2 16 10 149 11 149 1 0 -5 6 -5 13 0 17 11 41 10 49 -2 5
-6 8 -4 8 5 0 10 10 17 27 18 15 1 30 7 34 14 4 6 14 8 23 5 8 -3 18 -2 21 4
4 5 10 7 14 5 4 -3 13 -1 21 5 13 7 13 9 0 9 -13 0 -13 1 0 10 20 13 33 12 24
-2 -4 -7 -3 -8 4 -4 7 4 12 14 12 22 0 8 5 14 11 14 5 0 7 -5 3 -12 -5 -7 -3
-8 5 -4 7 5 10 15 6 23 -5 13 -3 14 10 3 9 -7 15 -9 14 -4 -4 24 2 44 14 42 6
-2 11 3 9 10 -1 8 2 11 8 7 5 -3 10 -1 10 5 0 7 7 10 15 6 13 -5 14 -2 4 17
-11 20 -11 21 5 8 14 -12 16 -12 10 4 -5 13 -4 16 4 11 7 -4 12 -1 12 9 0 9 4
13 10 10 5 -3 7 0 4 8 -3 8 -1 18 5 22 6 3 11 15 11 26 0 10 6 19 13 19 9 0 9
2 -1 9 -11 7 -11 9 2 14 9 4 13 13 10 21 -3 8 3 35 14 60 11 24 18 47 15 50
-10 10 -9 51 2 58 6 5 6 8 -2 8 -9 0 -10 7 -4 23 5 13 5 30 1 37 -5 8 -5 21 0
30 5 9 5 22 1 29 -8 13 -5 70 4 79 3 3 0 11 -6 19 -9 10 -8 13 2 13 10 0 10 3
1 12 -15 15 -16 32 -1 22 8 -4 8 -1 2 12 -10 19 -9 72 1 82 3 3 1 11 -5 19 -9
10 -8 13 1 13 9 0 9 4 2 13 -7 8 -7 18 -2 27 5 8 6 18 3 23 -10 16 -10 72 0
78 6 4 6 13 1 20 -12 19 -11 72 1 81 6 5 5 8 -2 8 -9 0 -10 7 -4 23 5 13 5 30
1 37 -5 8 -5 21 0 30 5 9 5 22 1 29 -8 13 -5 70 4 79 3 3 0 11 -6 19 -9 10 -8
13 2 13 10 0 10 3 1 12 -15 15 -16 32 -1 22 8 -4 8 -1 2 12 -10 19 -9 72 1 82
3 3 1 11 -5 19 -9 10 -8 13 1 13 9 0 9 4 2 13 -7 8 -7 18 -2 27 5 8 6 18 3 23
-10 16 -10 72 0 78 6 4 6 13 1 20 -12 19 -11 72 1 81 6 5 5 8 -2 8 -9 0 -10 7
-4 23 5 13 5 30 1 37 -5 8 -5 21 0 30 5 9 5 22 1 29 -8 13 -5 70 4 79 3 3 0
11 -6 19 -9 10 -8 13 2 13 10 0 10 3 1 12 -15 15 -16 32 -1 22 8 -4 8 -1 2 12
-10 19 -9 72 1 82 3 3 1 11 -5 19 -9 10 -8 13 1 13 9 0 9 4 2 13 -7 8 -7 18
-2 27 5 8 6 18 3 23 -10 16 -10 72 0 78 6 4 6 13 1 20 -12 19 -11 72 1 81 6 5
5 8 -2 8 -9 0 -10 7 -4 23 5 13 5 30 1 37 -5 8 -5 21 0 30 5 9 5 22 1 29 -8
13 -5 70 4 79 3 3 0 11 -6 19 -9 10 -8 13 2 13 10 0 10 3 1 12 -15 15 -16 32
-1 22 8 -4 8 -1 2 12 -10 19 -9 72 1 82 3 3 1 11 -5 19 -9 10 -8 13 1 13 9 0
9 4 2 13 -7 8 -7 18 -2 27 5 8 6 18 3 23 -10 16 -10 72 0 78 6 4 6 13 1 20
-12 19 -11 72 1 81 6 5 5 8 -2 8 -9 0 -10 7 -4 23 5 13 5 30 1 37 -5 8 -5 21
0 30 5 9 5 22 1 29 -8 13 -5 70 4 79 3 3 0 11 -6 19 -9 10 -8 13 2 13 10 0 10
3 1 12 -15 15 -16 32 -1 22 8 -4 8 -1 2 12 -10 19 -9 72 1 82 3 3 1 11 -5 19
-9 10 -8 13 1 13 9 0 9 4 2 13 -7 8 -7 18 -2 27 5 8 6 18 3 23 -10 16 -10 72
0 78 6 4 6 13 1 20 -12 19 -11 72 1 81 6 5 5 8 -2 8 -9 0 -10 7 -4 23 5 13 5
30 1 37 -5 8 -5 21 0 30 5 9 5 22 1 29 -8 13 -5 70 4 79 3 3 0 11 -6 19 -9 10
-8 13 2 13 10 0 10 3 1 12 -15 15 -16 32 -1 22 8 -4 8 -1 2 12 -10 19 -9 72 1
82 3 3 1 11 -5 19 -9 10 -8 13 1 13 9 0 9 4 2 13 -7 8 -7 18 -2 27 5 8 6 18 3
23 -10 16 -10 72 0 78 6 4 6 13 1 20 -12 19 -11 72 1 81 6 5 5 8 -2 8 -9 0
-10 7 -4 23 5 13 5 30 1 37 -5 8 -5 21 0 30 5 9 5 22 1 29 -8 13 -5 70 4 79 3
3 0 11 -6 19 -9 10 -8 13 2 13 10 0 10 3 1 12 -15 15 -16 32 -1 22 8 -4 8 -1
2 12 -10 19 -9 72 1 82 3 3 1 11 -5 19 -9 10 -8 13 1 13 9 0 9 4 2 13 -7 8 -7
18 -2 27 5 8 6 18 3 23 -10 16 -10 72 0 78 6 4 6 13 1 20 -12 19 -11 72 1 81
6 5 5 8 -2 8 -9 0 -10 7 -4 23 5 13 5 30 1 37 -5 8 -5 21 0 30 5 9 5 22 1 29
-8 13 -5 70 4 79 3 3 0 11 -6 19 -9 10 -8 13 2 13 10 0 10 3 1 12 -15 15 -16
32 -1 22 8 -4 8 -1 2 12 -10 19 -9 72 1 82 3 3 1 11 -5 19 -9 10 -8 13 1 13 9
0 9 4 2 13 -7 8 -7 18 -2 27 5 8 6 18 3 23 -10 16 -10 72 0 78 6 4 6 13 1 20
-12 19 -11 72 1 81 6 5 5 8 -2 8 -9 0 -10 7 -4 23 5 13 5 30 1 37 -5 8 -5 21
0 30 5 9 5 22 1 29 -8 13 -5 70 4 79 3 3 0 11 -6 19 -9 10 -8 13 2 13 10 0 10
3 1 12 -14 14 -16 32 -4 24 5 -3 4 10 -2 29 -6 18 -14 31 -19 28 -5 -3 -5 2 0
12 8 14 5 27 -10 54 -15 25 -17 33 -6 26 8 -5 7 -3 -2 6 -14 13 -15 19 -6 28
9 9 8 11 -5 6 -13 -5 -18 -2 -18 10 0 9 -4 14 -8 11 -5 -3 -9 2 -9 10 0 9 6
13 14 10 8 -3 11 -1 8 4 -3 6 -16 10 -28 10 -18 0 -19 2 -7 10 12 8 10 10 -10
11 -14 0 -19 3 -12 6 21 8 13 21 -10 15 -21 -5 -22 -4 -9 12 12 15 12 17 0 14
-8 -2 -13 3 -11 11 3 12 0 12 -12 2 -11 -9 -16 -9 -22 0 -4 8 -3 9 4 5 7 -4
12 -2 12 3 0 6 -7 11 -15 11 -8 0 -20 9 -27 20 -7 11 -18 20 -25 20 -7 0 -13
5 -13 11 0 6 -7 8 -16 5 -9 -3 -12 -2 -9 5 4 6 1 9 -6 8 -20 -4 -61 20 -54 31
3 6 -1 7 -10 3 -10 -3 -21 0 -26 8 -5 8 -9 9 -9 3 0 -12 -52 -10 -72 2 -7 4
-8 2 -4 -4 9 -15 1 -15 -24 -2 -13 7 -21 7 -25 0 -5 -8 -12 -7 -23 2 -10 9
-13 9 -9 1 5 -8 0 -11 -13 -10 -11 1 -20 5 -20 10 0 5 -7 3 -17 -4 -9 -8 -19
-12 -22 -10 -19 11 -51 20 -46 12 3 -6 -4 -9 -15 -8 -11 1 -20 5 -20 10 0 5
-7 3 -17 -4 -9 -8 -17 -13 -17 -12 -1 1 -14 6 -29 12 -18 7 -26 7 -22 1 8 -12
-5 -13 -25 0 -9 5 -19 5 -27 -2 -9 -7 -17 -7 -27 1 -10 9 -16 9 -21 1 -5 -8
-10 -8 -20 0 -10 8 -15 8 -20 0 -5 -8 -10 -8 -20 0 -9 8 -15 8 -20 0 -3 -6
-12 -7 -18 -3 -16 10 -47 11 -41 2 2 -4 -5 -7 -16 -6 -11 1 -20 5 -20 10 0 5
-6 5 -12 -1 -15 -12 -25 -12 -56 -1 -14 6 -21 5 -17 0 3 -6 -4 -9 -15 -8 -11
1 -20 5 -20 10 0 5 -7 3 -17 -4 -9 -8 -19 -12 -22 -10 -20 12 -51 20 -46 11 8
-12 -5 -13 -25 0 -9 5 -19 5 -27 -2 -9 -7 -17 -7 -27 1 -10 9 -16 9 -21 1 -5
-8 -10 -8 -20 0 -10 8 -15 8 -20 0 -5 -8 -10 -8 -20 0 -10 8 -15 8 -20 0 -5
-8 -10 -8 -20 0 -10 8 -15 8 -20 0 -5 -8 -10 -8 -20 0 -10 8 -15 8 -20 0 -5
-8 -10 -8 -20 0 -10 8 -15 8 -20 0 -5 -8 -10 -8 -20 0 -9 8 -15 8 -20 0 -3 -6
-12 -7 -18 -3 -16 10 -47 11 -41 2 2 -4 -5 -7 -16 -6 -11 1 -20 5 -20 10 0 4
-6 5 -12 0 -17 -10 -29 -11 -56 -1 -14 5 -21 4 -17 -1 3 -6 -4 -9 -15 -8 -11
1 -20 5 -20 10 0 4 -6 5 -12 0 -17 -10 -29 -11 -56 -1 -15 5 -21 4 -17 -2 8
-12 -5 -13 -25 0 -9 5 -19 5 -27 -2 -9 -7 -17 -7 -27 1 -10 9 -16 9 -21 1 -5
-8 -10 -8 -20 0 -10 8 -15 8 -20 0 -5 -8 -10 -8 -20 0 -10 8 -15 8 -20 0 -5
-7 -11 -8 -19 -1 -7 6 -18 6 -26 1 -7 -4 -24 -4 -37 1 -15 5 -22 5 -18 0 3 -6
-4 -9 -15 -8 -11 1 -20 5 -20 10 0 6 -5 6 -12 0 -14 -10 -76 -10 -103 1 -9 3
-13 2 -10 -4 3 -5 -4 -8 -15 -7 -11 1 -20 5 -20 10 0 6 -5 6 -12 0 -15 -11
-58 -11 -75 0 -6 4 -15 3 -18 -3 -5 -8 -11 -8 -20 0 -10 8 -15 8 -20 0 -5 -8
-10 -8 -20 0 -9 8 -15 8 -20 0 -3 -6 -12 -7 -18 -3 -16 10 -47 11 -41 2 2 -4
-5 -7 -16 -6 -11 1 -20 5 -20 10 0 4 -6 5 -12 0 -17 -10 -29 -11 -56 -1 -14 5
-21 4 -17 -1 3 -6 -4 -9 -15 -8 -11 1 -20 5 -20 10 0 4 -6 5 -12 0 -17 -10
-29 -11 -56 -1 -15 5 -21 4 -17 -2 8 -12 -5 -13 -25 0 -9 5 -19 5 -27 -2 -9
-7 -17 -7 -27 1 -10 9 -16 9 -21 1 -5 -8 -10 -8 -20 0 -10 8 -15 8 -20 0 -5
-8 -10 -8 -20 0 -10 8 -15 8 -20 0 -5 -7 -11 -8 -19 -1 -7 6 -18 6 -26 1 -7
-4 -24 -4 -37 1 -15 5 -22 5 -18 0 3 -6 -4 -9 -15 -8 -11 1 -20 5 -20 10 0 6
-5 6 -12 0 -14 -10 -76 -10 -103 1 -9 3 -13 2 -10 -4 3 -5 -4 -8 -15 -7 -11 1
-20 5 -20 10 0 6 -5 6 -12 0 -14 -10 -76 -10 -103 1 -9 3 -13 2 -10 -4 3 -5
-4 -8 -15 -7 -11 1 -20 5 -20 10 0 6 -5 6 -12 0 -14 -10 -76 -10 -103 1 -9 3
-13 2 -10 -4 3 -5 -4 -8 -15 -7 -11 1 -20 5 -20 10 0 6 -5 6 -12 0 -15 -11
-58 -11 -75 0 -6 4 -15 3 -18 -3 -5 -8 -11 -8 -20 0 -10 8 -15 8 -20 0 -5 -8
-10 -8 -20 0 -9 8 -15 8 -20 0 -3 -6 -12 -7 -18 -3 -16 10 -47 11 -41 2 2 -4
-5 -7 -16 -6 -11 1 -20 5 -20 10 0 5 -7 3 -17 -4 -9 -8 -19 -12 -22 -10 -19
11 -51 20 -46 12 3 -6 -4 -9 -15 -8 -11 1 -20 5 -20 10 0 5 -7 3 -17 -4 -9 -8
-19 -12 -22 -10 -20 12 -51 20 -46 11 8 -12 -5 -13 -25 0 -9 5 -19 5 -27 -2
-9 -7 -17 -7 -27 1 -10 9 -16 9 -21 1 -5 -8 -10 -8 -20 0 -10 8 -15 8 -20 0
-5 -8 -10 -8 -20 0 -10 8 -15 8 -20 0 -5 -7 -11 -8 -19 -1 -7 6 -18 6 -26 1
-7 -4 -24 -4 -37 1 -15 5 -22 5 -18 0 3 -6 -4 -9 -15 -8 -11 1 -20 5 -20 10 0
6 -5 6 -12 0 -14 -10 -76 -10 -103 1 -9 3 -13 2 -10 -4 3 -5 -4 -8 -15 -7 -11
1 -20 5 -20 10 0 5 -7 3 -17 -4 -9 -8 -19 -12 -22 -10 -19 11 -51 20 -46 12 3
-6 -4 -9 -15 -8 -11 1 -20 5 -20 10 0 5 -7 3 -17 -4 -9 -8 -17 -13 -17 -12 -1
1 -14 6 -29 12 -16 6 -26 7 -22 2 3 -6 -4 -9 -15 -8 -11 1 -20 5 -20 10 0 5
-7 3 -17 -4 -9 -8 -19 -12 -22 -10 -20 12 -51 20 -46 11 8 -13 -1 -13 -25 0
-13 7 -21 7 -25 0 -5 -8 -12 -7 -23 2 -10 9 -13 9 -9 1 5 -8 0 -11 -13 -10
-11 1 -20 5 -20 10 0 4 -6 5 -12 0 -17 -10 -29 -11 -56 -1 -14 5 -21 4 -17 -1
3 -6 -4 -9 -15 -8 -11 1 -20 5 -20 10 0 4 -6 5 -12 0 -17 -10 -29 -11 -56 -1
-15 5 -21 4 -17 -2 8 -12 -5 -13 -25 -1 -8 6 -19 7 -25 3 -14 -9 -27 -9 -53 0
-14 5 -21 4 -17 -1 3 -6 -4 -9 -15 -8 -11 1 -20 5 -20 10 0 6 -5 6 -13 0 -13
-10 -75 -10 -102 1 -9 3 -13 2 -10 -4 3 -5 -4 -8 -15 -7 -11 1 -20 5 -20 10 0
6 -5 6 -12 0 -15 -11 -58 -11 -75 0 -6 4 -15 3 -18 -3 -5 -8 -11 -8 -20 0 -10
8 -15 8 -20 0 -5 -8 -10 -8 -20 0 -9 8 -15 8 -20 0 -3 -6 -12 -7 -18 -3 -16
10 -47 11 -41 2 2 -4 -5 -7 -16 -6 -11 1 -20 5 -20 10 0 4 -6 5 -12 0 -17 -10
-29 -11 -56 -1 -14 5 -21 4 -17 -1 3 -6 -4 -9 -15 -8 -11 1 -20 5 -20 10 0 5
-6 5 -12 -1 -18 -15 -20 -15 -51 -3 -18 7 -26 7 -22 1 8 -12 -5 -13 -25 0 -9
5 -19 5 -27 -2 -9 -7 -17 -7 -27 1 -10 9 -16 9 -21 1 -5 -8 -10 -8 -20 0 -10
8 -15 8 -20 0 -5 -8 -10 -8 -20 0 -10 8 -15 8 -20 0 -5 -7 -11 -8 -19 -1 -7 6
-18 6 -26 1 -7 -4 -24 -4 -37 1 -15 5 -22 5 -18 0 3 -6 -4 -9 -15 -8 -11 1
-20 5 -20 10 0 6 -5 6 -12 0 -14 -10 -76 -10 -103 1 -9 3 -13 2 -10 -4 3 -5
-4 -8 -15 -7 -11 1 -20 5 -20 10 0 5 -7 3 -17 -4 -9 -8 -19 -12 -22 -10 -19
11 -51 20 -46 12 3 -6 -4 -9 -15 -8 -11 1 -20 5 -20 10 0 5 -6 5 -12 -1 -15
-12 -25 -12 -56 -1 -14 6 -21 5 -17 0 3 -6 -4 -9 -15 -8 -11 1 -20 5 -20 10 0
4 -6 5 -12 0 -17 -10 -29 -11 -56 -1 -15 5 -21 4 -17 -2 8 -13 -1 -13 -25 0
-13 7 -21 7 -25 0 -5 -8 -12 -7 -23 2 -10 9 -13 9 -9 1 5 -8 0 -11 -13 -10
-11 1 -20 5 -20 10 0 4 -6 5 -12 0 -17 -10 -29 -11 -56 -1 -14 5 -21 4 -17 -1
3 -6 -4 -9 -15 -8 -11 1 -20 5 -20 10 0 4 -6 5 -12 0 -17 -10 -29 -11 -56 -1
-15 5 -21 4 -17 -2 8 -13 -1 -13 -25 0 -13 7 -21 7 -25 0 -5 -8 -12 -7 -23 2
-10 9 -13 9 -9 1 5 -8 0 -11 -13 -10 -11 1 -20 5 -20 10 0 5 -7 3 -17 -4 -9
-8 -19 -12 -22 -10 -19 11 -51 20 -46 12 3 -6 -4 -9 -15 -8 -11 1 -20 5 -20
10 0 5 -7 3 -17 -4 -9 -8 -19 -12 -22 -10 -20 12 -51 20 -46 11 8 -13 -1 -13
-25 0 -13 7 -21 7 -25 0 -5 -8 -12 -7 -23 2 -10 9 -13 9 -9 1 5 -8 0 -11 -13
-10 -11 1 -20 5 -20 10 0 5 -7 3 -17 -4 -9 -8 -19 -12 -22 -10 -19 11 -51 20
-46 12 3 -6 -4 -9 -15 -8 -11 1 -20 5 -20 10 0 4 -6 5 -12 0 -17 -10 -29 -11
-56 -1 -15 5 -21 4 -17 -2 8 -12 -5 -13 -25 -1 -8 6 -19 7 -25 3 -14 -9 -27
-9 -53 0 -14 5 -21 4 -17 -1 3 -6 -4 -9 -15 -8 -11 1 -20 5 -20 10 0 6 -5 6
-12 0 -14 -10 -76 -10 -103 1 -9 3 -13 2 -10 -4 3 -5 -4 -8 -15 -7 -11 1 -20
5 -20 10 0 6 -5 6 -12 0 -15 -11 -58 -11 -75 0 -6 4 -15 3 -18 -3 -5 -8 -11
-8 -20 0 -10 8 -15 8 -20 0 -5 -8 -10 -8 -20 0 -9 8 -15 8 -20 0 -3 -6 -12 -7
-18 -3 -16 10 -47 11 -41 2 2 -4 -5 -7 -16 -6 -11 1 -20 5 -20 10 0 5 -7 3
-17 -4 -9 -8 -19 -12 -22 -10 -20 12 -51 20 -46 11 8 -13 -1 -13 -25 0 -10 6
-21 6 -24 2z m-276 -162 c0 -5 -5 -10 -11 -10 -5 0 -7 5 -4 10 3 6 8 10 11 10
2 0 4 -4 4 -10z m3260 -1121 c0 7 4 10 10 6 12 -7 410 -8 418 -1 3 3 11 1 19
-5 8 -7 13 -7 13 -2 0 7 15 7 40 3 23 -4 43 -3 46 2 3 5 12 4 20 -3 8 -6 14
-7 14 -2 0 7 15 7 40 3 23 -4 43 -3 46 2 3 5 12 4 20 -3 8 -6 14 -8 14 -3 0 5
45 7 101 4 56 -3 103 -1 106 3 3 4 11 3 19 -4 8 -6 14 -7 14 -2 0 7 15 7 40 3
23 -4 43 -3 46 2 3 5 12 4 20 -3 8 -6 14 -7 14 -2 0 7 15 7 40 3 23 -4 43 -3
46 2 3 5 12 4 20 -3 11 -9 14 -9 14 0 0 8 5 9 19 1 14 -7 22 -7 26 0 5 8 11 7
21 -1 8 -6 14 -7 14 -2 0 7 15 7 40 3 23 -4 43 -3 46 2 3 5 12 4 20 -3 8 -6
14 -7 14 -2 0 7 15 7 40 3 23 -4 43 -3 46 2 3 5 12 4 20 -3 8 -6 14 -7 14 -2
0 7 15 7 40 3 23 -4 43 -3 46 2 3 5 12 4 20 -3 8 -6 14 -7 14 -2 0 5 27 6 61
3 33 -3 63 -2 66 3 2 4 11 3 19 -4 8 -6 14 -8 14 -3 0 5 54 7 121 4 67 -3 123
-1 126 3 3 4 11 3 19 -4 8 -6 14 -7 14 -2 0 6 15 8 39 3 25 -4 44 -3 51 4 7 7
13 8 18 1 4 -6 14 -10 22 -10 25 2 80 -27 73 -38 -4 -6 0 -8 10 -4 10 4 17 2
17 -5 0 -6 8 -17 18 -25 11 -10 12 -12 2 -8 -8 4 -5 -2 7 -13 17 -15 19 -22
10 -31 -9 -9 -8 -11 7 -5 13 5 17 4 12 -4 -4 -7 -1 -12 6 -13 9 0 10 -2 1 -5
-7 -3 -9 -12 -6 -20 3 -7 8 -12 12 -10 5 4 6 -55 1 -61 -7 -8 -5 -30 3 -40 6
-9 5 -13 -3 -13 -8 0 -9 -4 -4 -12 9 -12 10 -32 4 -50 -6 -20 -5 -34 3 -45 6
-8 6 -13 -1 -13 -5 0 -8 -9 -5 -19 3 -11 -3 -27 -15 -39 -15 -15 -17 -23 -8
-32 8 -10 8 -11 -3 -5 -11 6 -13 4 -8 -8 4 -11 2 -14 -8 -11 -10 4 -13 0 -10
-16 3 -18 2 -20 -10 -10 -10 8 -15 8 -21 -1 -5 -8 -3 -10 7 -5 8 4 6 1 -3 -7
-10 -8 -14 -18 -10 -23 4 -4 -2 -2 -12 6 -13 10 -17 10 -12 3 4 -8 2 -13 -4
-13 -6 0 -8 -5 -4 -12 6 -10 4 -10 -8 0 -11 9 -17 10 -20 2 -4 -13 -68 -20
-68 -8 0 5 -9 4 -20 -2 -14 -8 -20 -8 -20 0 0 8 -6 8 -20 0 -15 -8 -20 -8 -20
1 0 9 -3 9 -14 0 -9 -7 -17 -8 -20 -2 -7 10 -24 10 -43 -2 -6 -4 -15 -3 -18 3
-5 8 -11 8 -20 0 -10 -8 -15 -8 -20 0 -5 8 -10 8 -20 0 -9 -8 -15 -8 -20 0 -3
6 -12 7 -18 3 -17 -10 -47 -11 -53 -1 -3 5 -12 4 -20 -3 -11 -9 -14 -9 -14 0
0 9 -5 9 -20 1 -14 -8 -20 -8 -20 0 0 8 -6 8 -20 0 -14 -8 -20 -8 -20 0 0 8
-6 8 -20 0 -14 -8 -20 -8 -20 0 0 8 -6 8 -20 0 -15 -8 -20 -8 -20 1 0 9 -3 9
-14 0 -10 -9 -16 -9 -21 -1 -5 8 -10 8 -20 0 -8 -7 -15 -7 -19 -1 -7 10 -24
10 -43 -2 -6 -4 -15 -3 -18 3 -5 8 -11 8 -20 0 -10 -8 -15 -8 -20 0 -5 8 -10
8 -20 0 -9 -8 -15 -8 -20 0 -3 6 -12 7 -18 3 -17 -10 -47 -11 -53 -1 -3 5 -12
4 -20 -3 -11 -9 -14 -9 -14 0 0 9 -5 9 -20 1 -14 -8 -20 -8 -20 0 0 8 -6 8
-20 0 -14 -8 -20 -8 -20 0 0 8 -6 8 -20 0 -14 -8 -20 -8 -20 0 0 8 -6 8 -20 0
-14 -8 -20 -8 -20 0 0 8 -6 8 -20 0 -15 -8 -20 -8 -20 1 0 9 -3 9 -14 0 -9 -7
-17 -8 -20 -2 -7 10 -24 10 -43 -2 -6 -4 -15 -3 -18 3 -5 8 -11 8 -20 0 -10
-8 -15 -8 -20 0 -5 8 -10 8 -20 0 -9 -8 -15 -8 -20 0 -3 6 -12 7 -18 3 -17
-10 -47 -11 -53 -1 -3 5 -12 4 -19 -2 -10 -8 -15 -8 -20 0 -5 8 -11 8 -21 -1
-11 -9 -14 -9 -14 0 0 9 -5 9 -20 1 -14 -8 -20 -8 -20 0 0 8 -6 8 -20 0 -14
-8 -20 -8 -20 0 0 8 -6 8 -20 0 -14 -8 -20 -8 -20 0 0 8 -6 8 -20 0 -15 -8
-20 -8 -20 1 0 9 -3 9 -14 0 -10 -8 -16 -9 -21 -1 -4 7 -12 7 -25 0 -13 -7
-21 -7 -25 0 -5 8 -11 8 -20 0 -10 -8 -15 -8 -20 0 -5 8 -11 8 -21 -1 -11 -9
-14 -9 -14 0 0 9 -5 9 -20 1 -14 -8 -20 -8 -20 0 0 8 -6 8 -20 0 -14 -8 -20
-8 -20 0 0 8 -6 8 -20 0 -14 -8 -20 -8 -20 0 0 8 -6 8 -20 0 -15 -8 -20 -8
-20 1 0 9 -3 9 -14 0 -10 -8 -16 -9 -21 -1 -4 7 -12 7 -25 0 -13 -7 -21 -7
-25 0 -5 8 -11 8 -20 0 -10 -8 -15 -8 -20 0 -5 8 -11 8 -21 -1 -11 -9 -14 -9
-14 0 0 9 -5 9 -20 1 -11 -6 -20 -7 -20 -3 0 4 -11 8 -25 8 -14 0 -25 -4 -25
-8 0 -4 -8 -4 -17 2 -10 5 -26 5 -40 0 -13 -5 -25 -4 -28 2 -4 5 -12 9 -18 8
-24 -4 -46 12 -39 29 5 15 3 15 -10 4 -14 -11 -18 -10 -30 7 -8 12 -18 18 -22
14 -4 -4 -4 1 0 12 5 11 9 14 12 7 2 -7 8 -12 14 -12 6 0 6 6 -2 15 -7 8 -16
13 -20 10 -4 -3 -13 2 -20 10 -9 11 -10 15 -1 15 8 0 7 6 -3 16 -9 8 -16 22
-16 30 0 8 -4 12 -10 9 -7 -4 -7 2 0 19 5 15 5 28 0 31 -5 3 -5 18 0 35 5 18
5 32 -1 35 -5 4 -5 14 1 25 7 13 7 21 0 25 -8 5 -8 11 0 20 8 9 8 15 0 20 -6
4 -7 12 -1 23 6 10 6 23 0 34 -7 13 -6 16 5 12 9 -3 13 1 13 13 -1 11 4 17 12
15 11 -2 12 0 3 10 -8 10 -4 19 19 37 17 13 28 30 25 38 -3 7 -1 13 5 13 6 0
7 5 3 12 -4 7 -3 8 5 4 6 -4 9 -13 5 -19 -3 -7 4 -1 15 13 11 14 21 21 21 15
0 -5 5 -3 10 5 9 13 10 13 10 0 1 -12 3 -11 11 3 8 14 14 16 25 6 11 -9 14 -9
14 0z m-130 -63 c0 -2 -7 -7 -16 -10 -8 -3 -12 -2 -9 4 6 10 25 14 25 6z"/>
<path d="M9480 7246 c0 -2 8 -10 18 -17 15 -13 16 -12 3 4 -13 16 -21 21 -21
13z"/>
<path d="M9786 1273 c-6 -14 -5 -15 5 -6 7 7 10 15 7 18 -3 3 -9 -2 -12 -12z"/>
<path d="M933 1075 c0 -8 4 -15 9 -15 4 0 8 4 8 9 0 6 -4 12 -8 15 -5 3 -9 -1
-9 -9z"/>
</g>
</svg>
